<svg width="42" height="32" viewBox="0 0 42 32" fill="none" xmlns="http://www.w3.org/2000/svg">
<path d="M19.9393 24.0607C20.5251 24.6464 21.4749 24.6464 22.0607 24.0607L31.6066 14.5147C32.1924 13.9289 32.1924 12.9792 31.6066 12.3934C31.0208 11.8076 30.0711 11.8076 29.4853 12.3934L21 20.8787L12.5147 12.3934C11.9289 11.8076 10.9792 11.8076 10.3934 12.3934C9.80761 12.9792 9.80761 13.9289 10.3934 14.5147L19.9393 24.0607ZM19.5 0V23H22.5V0L19.5 0Z" fill="white"/>
<line x1="1" y1="14" x2="1" y2="32" stroke="white" stroke-width="2"/>
<line y1="31" x2="42" y2="31" stroke="#FFFEFE" stroke-width="2"/>
<line x1="41" y1="14" x2="41" y2="32" stroke="white" stroke-width="2"/>
</svg>
